<?xml version="1.0" encoding="UTF-8"?><svg id="Layer_2" xmlns="http://www.w3.org/2000/svg" viewBox="0 0 656.07 298.78"><defs><style>.cls-1{fill:#010101;stroke-width:0px;}</style></defs><g id="Layer_1-2"><path class="cls-1" d="m112.24,183.09c-34.84,0-59.24-14.88-72.94-38.7L0,171.78c17.57,32.16,56.87,51.51,109.86,51.51,64.01,0,100.33-26.5,100.33-69.67,0-37.21-21.43-55.07-67.87-62.52l-42.57-6.25c-25.32-4.17-33.95-10.12-33.95-23.82s15.19-22.33,41.09-22.33c31.26,0,55.38,12.21,68.48,33.34l34.83-29.17C190.24,13.99,155.11,0,109.86,0,50.31,0,14.89,24.11,14.89,64.3c0,36.63,22.33,56.57,65.8,63.42l43.76,6.55c23.82,3.57,33.05,9.53,33.05,24.12,0,16.97-16.67,24.71-45.25,24.71Z"/><polygon class="cls-1" points="476.62 5.96 476.62 217.33 431.01 217.33 430.94 53.8 372.37 217.33 325.41 217.33 266.56 54.05 266.66 217.33 220.84 217.33 220.84 5.96 297.45 5.85 350.27 152.44 402.45 5.96 476.62 5.96"/><polygon class="cls-1" points="555.24 112.2 656.07 33.96 623.64 1.53 484.7 112.17 622.34 221.56 654.77 189.13 555.24 112.2"/><path class="cls-1" d="m45.24,287.98h-19.41l-3.92,9.68h-8.11l17.34-39.72h8.78l17.34,39.72h-8.11l-3.92-9.68Zm-2.24-5.65l-4.92-12.19c-1.17-2.52-1.9-4.14-2.46-6.38h-.11c-.62,2.24-1.34,3.86-2.52,6.38l-4.92,12.19h14.94Z"/><path class="cls-1" d="m68.56,257.94v23.61c0,6.38,3.97,10.85,11.08,10.85s11.02-4.48,11.02-10.85v-23.61h7.78v24.11c0,9.96-6.77,16.73-18.8,16.73s-18.85-6.77-18.85-16.73v-24.11h7.78Z"/><path class="cls-1" d="m124,278.53l-7.72,7.38v11.75h-7.78v-39.72h7.78v19.3l19.58-19.3h9.57l-15.83,15.5,17.06,24.22h-9.12l-13.54-19.13Z"/><path class="cls-1" d="m147.16,287.25l6.49-2.91c1.9,4.98,6.27,8.5,13.76,8.5,5.87,0,9.73-1.73,9.73-5.87,0-3.69-2.35-5.03-7.33-5.82l-8.5-1.17c-7.5-1.17-11.86-4.59-11.86-11.41,0-7.27,6.38-11.75,17.06-11.75,9.01,0,15.66,3.19,18.29,9.96l-6.04,3.24c-1.79-4.75-5.93-7.44-12.59-7.44-5.65,0-9.01,2.01-9.01,5.43s1.9,4.81,6.94,5.59l8.17,1.23c8.22,1.23,12.7,4.31,12.7,11.41s-6.15,12.53-17.84,12.53c-10.85,0-17.68-4.48-19.97-11.52Zm23.61-31.61h-8.06l-6.88-6.32h6.6l4.31,3.97,4.31-3.97h6.54l-6.82,6.32Z"/><path class="cls-1" d="m223.51,264.15h-14.38v33.51h-7.78v-33.51h-14.38v-6.21h36.53v6.21Z"/><path class="cls-1" d="m224.13,277.8c0-12.87,8.67-20.98,21.93-20.98s21.93,8.11,21.93,20.98-8.67,20.98-21.93,20.98-21.93-8.22-21.93-20.98Zm35.74,0c0-9.12-5.31-14.88-13.82-14.88s-13.82,5.76-13.82,14.88,5.31,14.88,13.82,14.88,13.82-5.76,13.82-14.88Z"/><path class="cls-1" d="m275.26,298.49c-2.35,0-4.48-.11-6.1-.5v-6.49c1.57.22,3.3.34,5.03.34,4.2,0,7.22-1.62,7.22-7.72v-26.18h7.72v27.24c0,9.9-5.87,13.31-13.87,13.31Z"/><path class="cls-1" d="m299.25,297.66v-39.72h7.78v39.72h-7.78Z"/><path class="cls-1" d="m336.68,257.94h11.24l10.74,27.69c.56,1.73.9,2.68,1.12,4.03h.11c.22-1.34.56-2.35,1.17-4.03l10.68-27.69h11.36v39.72h-7.1v-28.75c0-1.62.11-3.36.28-4.81h-.22c-.17.9-.84,3.13-1.46,4.64l-11.3,28.92h-7.16l-11.3-28.92c-.56-1.51-1.12-3.58-1.34-4.64h-.22c.17,1.4.28,3.02.28,4.81v28.75h-6.88v-39.72Z"/><path class="cls-1" d="m390.82,277.8c0-12.87,8.67-20.98,21.93-20.98s21.93,8.11,21.93,20.98-8.67,20.98-21.93,20.98-21.93-8.22-21.93-20.98Zm35.75,0c0-9.12-5.31-14.88-13.82-14.88s-13.82,5.76-13.82,14.88,5.31,14.88,13.82,14.88,13.82-5.76,13.82-14.88Z"/><path class="cls-1" d="m457.89,278.53l-7.72,7.38v11.75h-7.78v-39.72h7.78v19.3l19.58-19.3h9.57l-15.83,15.5,17.06,24.22h-9.12l-13.54-19.13Z"/><path class="cls-1" d="m498.73,283l-16.28-25.06h8.73l10.35,16.61c.56,1.01.9,1.68,1.06,2.35h.11c.17-.67.5-1.34,1.12-2.35l10.46-16.61h8.56l-16.33,25.06v14.66h-7.78v-14.66Z"/><path class="cls-1" d="m544.04,278.53l-7.72,7.38v11.75h-7.78v-39.72h7.78v19.3l19.58-19.3h9.57l-15.83,15.5,17.06,24.22h-9.12l-13.54-19.13Z"/><path class="cls-1" d="m573.63,257.94h7.78v33.4h22.04v6.32h-29.82v-39.72Z"/><path class="cls-1" d="m639.19,287.98h-19.41l-3.92,9.68h-8.11l17.34-39.72h8.78l17.34,39.72h-8.11l-3.91-9.68Zm-2.24-5.65l-4.92-12.19c-1.17-2.52-1.9-4.14-2.46-6.38h-.11c-.62,2.24-1.34,3.86-2.52,6.38l-4.92,12.19h14.94Z"/></g></svg>